<?xml version="1.0" encoding="utf-8"?>
<!-- Generator: Adobe Illustrator 16.0.3, SVG Export Plug-In . SVG Version: 6.00 Build 0)  -->
<!DOCTYPE svg PUBLIC "-//W3C//DTD SVG 1.1//EN" "http://www.w3.org/Graphics/SVG/1.1/DTD/svg11.dtd">
<svg version="1.1" id="Capa_1" xmlns="http://www.w3.org/2000/svg" xmlns:xlink="http://www.w3.org/1999/xlink" x="0px" y="0px"
	 width="538.58px" height="368.5px" viewBox="0 0 538.58 368.5" enable-background="new 0 0 538.58 368.5" xml:space="preserve">
<path fill="#FCCC27" stroke="#5C0B08" stroke-width="18" stroke-miterlimit="10" d="M57.285,152.847
	c0,0,54.638-112.371,126.666-115.374c72.028-3.003,144.366,96,144.366,96l-153.773,87H86.028
	C86.028,220.473,48.285,188.223,57.285,152.847z"/>
<path fill="#FCCC27" stroke="#5C0B08" stroke-width="18" stroke-miterlimit="10" d="M62.891,350.805c0,0-50.939-2-39.606-96
	C34.617,160.806,42.617,122.14,88.617,76.807s95.333-48.667,95.333-48.667s-95.333,66-108,104.667
	c-16.667,26-32.792,124.84-34.667,144.667c-1.57,16.605,3.333,30.666,18,38.666s30.666,14,47.333-6"/>
<path fill="#B14313" stroke="#633515" stroke-width="6" stroke-miterlimit="10" d="M89.865,331.139c0,0-23.913,3.334-29.915-24.029
	c-3.223-14.691-8.667-12.668-9.333-28c-0.667-15.334,5.333-14.668,5.333-14.668s-14.667-18.666-12-26c2.667-7.332,6-6.666,13.333-10
	c7.333-3.332-8.667-10.664-2-18.664s4-14,10-14s-8.666-4.711-7.333-14.356c1.333-9.645,4-10.311,9.333-10.311s10-5.334,10-5.334
	s-12.99-2.666-3.162-8.666s9.829-6,9.829-6s12.667-8.001,8-13.334s-14-12-6.667-16.666c7.333-4.667,4-9.334,14.667-10
	c10.667-0.667,14-9.334,19.333-8s-4.667-14.667,0-17.333s-2.667-7.333,10-22s14.667-12.667,19.333-14s7.333-4,14.667-3.333
	s11.668-12.304,14.334-12.971s17.666-14,22.333-10.667c4.666,3.333,13.332-1.029,17.332-0.363s10.92,0.163,14.336-3.837
	s16.27,3.527,20.324,0c6.162-5.36,13.342-2.467,13.342-2.467l8.332,2.467l7.334,0.56c0,0,5-3.333,6.334,0
	c1.332,3.333,23.75-4.443,23.75-4.443s11.25-1.195,18.75,2c11.91,5.073,14.832,2.75,14.832,2.75l-5.332,73.637L209.283,221.109
	l-49.333,80.666L89.865,331.139z"/>
<path fill="#198E35" stroke="#338B30" stroke-width="6" stroke-miterlimit="10" d="M105.022,126.14c0,0-14.738-16.666-8.071-21.333
	c6.667-4.667-4.128-8-1.731-12.667s19.083-5.333,19.083-5.333l11.657,9.333l-4.641,19.333L105.022,126.14z"/>
<path fill="#F1F0F0" stroke="#CBCDC9" stroke-width="4" stroke-miterlimit="10" d="M122.307,102.88c0,0-0.135-28.696,11.729-31.773
	c11.865-3.076,23.56,13.858,23.56,13.858L122.307,102.88z"/>
<path fill="#B14313" stroke="#633515" stroke-width="6" stroke-miterlimit="10" d="M124.283,311.193c0,0-50,20.668-44.667-35.332
	c7.333-10,13.333-10.668,13.333-10.668s-27.334-11.334-20.667-24s18.667-17.332,18.667-17.332s-24.763-10.666-19.715-16.666
	s15.715-8,15.715-8l1.333-10.428c0,0-8.667-11.573-2.667-18.905c6-7.334,17.333-4.668,17.333-4.668s-1.334-4,1.333-11.332
	c2.667-7.334,16,0,16,0s-12-14.668-11.333-22.668s-3.333-18,8.667-28c12-10,12.667,0,12.667,0l6,6.667c0,0-12.667-8,0-20.667
	s18-5.333,20.667-5.333s10.667-8.667,10.667-8.667s-8.667-15.333,4-17.333s16.667,0,16.667,0l14-0.889c0,0,9.333,0.222,10-6.445
	s6.667-23.333,14.668-22.667c8,0.667,0.566-1.206,2.566-3.186s8.432-2.813,11.1-7.48c2.666-4.667,27.57-7.362,43.57,1.971
	s18.096,3.362,18.096,3.362s4.746,0.544,15.418-4.917c9.281-4.75,10.75-3.695,19.916-3.083l11.898,15.466l-4.564,68.505
	L165.617,307.164L124.283,311.193z"/>
<path fill="#F1F0F0" stroke="#CBCDC9" stroke-width="4" stroke-miterlimit="10" d="M122.07,263.705c0,0-31.689,3.334-21.178-20
	c10.511-23.332,21.178-16,21.178-16V263.705z"/>
<path fill="#F1F0F0" stroke="#CBCDC9" stroke-width="4" stroke-miterlimit="10" d="M136.617,167.474c0,0-25.333,6.666-18-16
	c7.333-22.668,18-11.334,18-11.334V167.474z"/>
<path fill="#F1F0F0" stroke="#CBCDC9" stroke-width="4" stroke-miterlimit="10" d="M149.951,122.14c0,0-14.667-24.667-6-33.333
	s27.333,0,27.333,0L149.951,122.14z"/>
<path fill="#F1F0F0" stroke="#CBCDC9" stroke-width="4" stroke-miterlimit="10" d="M206.617,55.473c0,0-6-24.667,6.667-34.667
	c12.667-10,28.667,17.333,28.667,17.333L206.617,55.473z"/>
<path fill="#198E35" stroke="#338B30" stroke-width="6" stroke-miterlimit="10" d="M141.258,143.817
	c0,0-27.009-14.056-19.676-26.722s19.676-6.666,19.676-6.666l11.657,2.666C152.915,113.095,151.645,145.312,141.258,143.817z"/>
<path fill="#198E35" stroke="#338B30" stroke-width="6" stroke-miterlimit="10" d="M194.254,80.891c0,0-16.827-25.375-4.278-32.907
	c12.548-7.532,20.443,3.693,20.443,3.693l8.909,7.977C219.328,59.654,202.619,87.228,194.254,80.891z"/>
<path fill="#198E35" stroke="#338B30" stroke-width="6" stroke-miterlimit="10" d="M109.83,299.352c0,0-17.929-6.855-16.298-20.428
	s8.097-9.99,8.097-9.99l10.535,3.752L109.83,299.352z"/>
<path fill="#FCCC27" stroke="#5C0B08" stroke-width="18" stroke-miterlimit="10" d="M24.4,294.83
	c0,70.643,75.239,60.639,79.73,59.514c4.491-1.119,317.799-33.689,367.209-69.621c49.41-35.936,57.271-65.133,24.705-149.352
	C463.479,51.149,362.412,2.863,286.051,24.199c-76.362,21.335-126.896,68.5-147.108,135.878
	c-20.213,67.374-11.991,201.395-82.99,170.729C36.861,320.701,28.918,290.561,24.4,294.83z"/>
<path fill="#9C370D" d="M203.928,259.52c0,0,25.771,5.346,35.037,1.975c9.264-3.369,32.848-20.633,42.951-34.531
	c10.107-13.895,30.322-22.314,48.43-10.525c12.211-18.529,40.006-15.578,45.479-10.947c5.477,4.631,33.268,18.947,48.006,18.947
	c14.74,0,20.123-2.994,25.268-7.576c5.146-4.588,5.209,2.943,5.209,2.943s-12.74,49.287-97.242,33.463
	c-14.561-7.354-22.002-13.322-22.002-13.322l-25.842,29.248c0,0-38.252,21.48-63.098,19.102
	C221.277,285.92,203.928,259.52,203.928,259.52z"/>
<path fill="#B95613" stroke="#5C0A08" stroke-width="10" stroke-miterlimit="10" d="M326.555,198.752c0,0-24.004-14.738-45.9,8.422
	c-21.898,23.158-25.688,46.742-78.327,45.898c1.264,18.529,31.163,32.848,39.584,34.531s67.377,4.633,90.959-50.111
	c36.994,31.184,78.125,24.428,100.467,7.75c17.766-13.264,20.814-34.699,20.814-34.699s-28.217,12.209-50.113-2.527
	C382.141,193.277,352.244,173.904,326.555,198.752z"/>
<path fill="#691309" d="M283.744,163.097c0,0-7.02-15.58-28.076-14.877c-21.055,0.699-29.617,10.246-32.004,12.773
	c-2.387,2.525-7.896,9.664-9.158,12.578c-2.44,5.648-0.388,20.409,15.756,6.934c16.143-13.479,32.145-12.357,36.777-10.531
	c4.631,1.828,19.932,5.756,16.705-6.035"/>
<path fill="#691309" d="M415.691,141.339c0,0-7.02-15.58-28.074-14.878c-21.057,0.7-29.617,10.247-32.004,12.774
	c-2.387,2.525-7.898,9.664-9.156,12.578c-2.441,5.648-0.391,20.406,15.754,6.93c16.143-13.475,31.217-10.33,35.723-8.211
	c10.738,5.055,20.986,3.439,17.758-8.351"/>
<path fill="#FCCC27" d="M98.619,345.805c0,0-85.167,20.668-64.583-90.727c0.272-9.496-1.38,2.324-1.38,2.324
	s-13.705,98.402,57.003,86.195C108.153,343.658,98.619,345.805,98.619,345.805z"/>
</svg>
