<svg id="Capa_1" enable-background="new 0 0 512 512" height="512" viewBox="0 0 512 512" width="512" xmlns="http://www.w3.org/2000/svg"><g><g><g><path d="m400.696 174.422 76.149-79.982c12.343-12.343 18.699-29.45 17.41-46.859l-.93-11.147-69.398 55.625-53.453 67.226z" fill="#efe2dd"/><path d="m493.325 36.434-3.039-36.434h-43.333l-3.919 47.167-87.345 82.248 14.785 29.87z" fill="#f7f0eb"/></g><g><path d="m333.856 195.903 23.764 23.764 43.076-45.245-22.679-22.68-29.514 15.741z" fill="#00969c"/><path d="m333.856 195.903 44.161-44.161-22.328-22.327-45.488 42.833z" fill="#00b6be"/></g></g><g><path d="m262.951 512h-78.546l-38.727-38.726 21.213-21.214 29.94 29.94h66.12z" fill="#bfbfbf"/></g><g><path d="m380.06 261.028-3.035-9.104c-7.765-23.296-20.883-44.23-37.86-61.329l-125.248 96.39-147.939 176.796 47.589 47.588 90.152-84.688 50.349-61.012 63.222-45.676z" fill="#e1d3ce"/><path d="m277.027 151.926-9.104-3.035-57.945 61.683-46.184 63.763-62.728 52.176-83.485 88.872 48.397 48.397 273.187-273.187c-17.245-17.37-38.473-30.781-62.138-38.669z" fill="#f7f0eb"/></g><g><path d="m319.988 299.353c3.57-24.992-4.417-49.568-21.924-67.658l-100.411 71.553-74.129 102.987c15.255 14.763 35.111 22.77 55.952 22.77 3.872 0 7.779-.276 11.694-.835l12.93-1.847 112.9-106.058z" fill="#00969c"/><path d="m297.107 230.711c-18.176-18.176-43.197-26.517-68.641-22.88l-18.377 2.625-108.987 116.019-1.453 10.172c-3.635 25.447 4.704 50.466 22.881 68.641.325.325.665.628.994.947l174.54-174.54c-.318-.328-.632-.66-.957-.984z" fill="#00b6be"/></g><g><path d="m230.891 319.273-10.203-10.202-23.035 9.262.408 13.365 10.203 10.202z" fill="#efe2dd"/><path d="m187.87 307.093h31.999v15.572h-31.999z" fill="#fff" transform="matrix(.707 -.707 .707 .707 -162.942 236.389)"/></g></g></svg>