<svg id="Capa_1" enable-background="new 0 0 511.028 511.028" height="512" viewBox="0 0 511.028 511.028" width="512" xmlns="http://www.w3.org/2000/svg"><g><path d="m344.391 447.215-88.877 46.856-88.877-46.856c-56.865-29.979-92.457-88.979-92.457-153.263v-208.131l181.333-69.75 181.333 69.75v208.131c.001 64.284-35.59 123.284-92.455 153.263z" fill="#878787"/><path d="m255.514 16.071 181.333 69.75v208.131c0 64.284-35.592 123.283-92.457 153.263l-88.877 46.856v-478z" fill="#666"/><g><path d="m182.023 226.927-2.194 5.321c-.624 1.513-15.283 37.553-15.283 80.167 0 27.361 5.997 49.769 11.027 63.75 3.34 9.28 14.019 15.762 25.969 15.762 14.576 0 26.445-9.225 27.021-21.002.752-15.361 2.718-37.637 7.812-56.521 5.981-22.171 13.808-30.071 19.139-30.071l13.692-57.406z" fill="#e1d3ce"/><path d="m331.199 232.248-2.194-5.321h-73.491v57.406c5.331 0 13.158 7.9 19.139 30.071 5.094 18.885 7.06 41.16 7.812 56.521.576 11.777 12.445 21.002 27.021 21.002 11.951 0 22.63-6.481 25.969-15.762 5.031-13.981 11.028-36.389 11.028-63.749 0-42.615-14.66-78.654-15.284-80.168z" fill="#cdbfba"/></g><g><path d="m195.246 104.927c-9.24 0-18.811.768-28.206 2.672-13.855 2.808-23.884 14.583-24.389 28.633-.84 23.37 2.22 66.31 32.137 91.296l2.279 1.914.244.197c9.033 7.037 20.312 10.912 31.762 10.912h46.442l13.292-69.167-13.292-55.649c-7.808-3.885-32.533-10.807-60.269-10.808z" fill="#f7f0eb"/><path d="m368.378 136.232c-.505-14.05-10.534-25.825-24.389-28.633-9.393-1.904-18.969-2.672-28.207-2.672-27.74 0-52.46 6.923-60.267 10.81v124.816h46.442c11.45 0 22.73-3.875 31.762-10.912l2.504-2.096c29.935-25.003 32.995-67.942 32.155-91.313z" fill="#efe2dd"/></g><path d="m173.633 433.946c-52.092-27.463-84.452-81.105-84.452-139.993v-197.83l166.333-63.98 10.667-10.882-10.667-21.261-196.333 75.52v218.433c0 70.051 38.495 133.862 100.461 166.531l95.872 50.544 10.667-20.434-10.667-13.48z" fill="#ffd27b"/><path d="m255.514 0v32.143l166.333 63.98v197.83c0 58.888-32.36 112.53-84.452 139.993l-81.881 43.168v33.914l95.872-50.544c61.966-32.669 100.461-96.48 100.461-166.531v-218.433z" fill="#f8bb5e"/></g></svg>